<svg width="28" height="28" viewBox="0 0 28 28" fill="none" xmlns="http://www.w3.org/2000/svg">
<g filter="url(#filter0_d_781_674)">
<path d="M23.2305 7.10564H24.8017C25.2792 7.10564 25.6668 7.49324 25.6668 7.97082C25.6668 8.4484 25.2792 8.836 24.8017 8.836H23.2305V10.4106C23.2305 10.8882 22.8429 11.2758 22.3653 11.2758C21.8877 11.2758 21.5001 10.8882 21.5001 10.4106V8.836H19.9232C19.4456 8.836 19.058 8.4484 19.058 7.97082C19.058 7.49324 19.4456 7.10564 19.9232 7.10564H21.5001V5.53217C21.5001 5.05459 21.8877 4.66699 22.3653 4.66699C22.8429 4.66699 23.2305 5.05459 23.2305 5.53217V7.10564Z" fill="#5B616D"/>
<path d="M13.2935 13.3458C11.8031 13.3458 10.5907 14.5582 10.5907 16.0486C10.5907 17.539 11.8031 18.7514 13.2935 18.7514C14.7839 18.7514 15.9963 17.539 15.9963 16.0486C15.9963 14.5582 14.7839 13.3458 13.2935 13.3458Z" fill="#5B616D"/>
<path fill-rule="evenodd" clip-rule="evenodd" d="M15.7342 6.41759C15.6989 5.74445 15.1834 5.16014 14.5094 5.153C13.4091 5.14134 11.8595 5.12662 11.0464 5.12662C9.89977 5.12662 8.8431 5.74955 8.28708 6.75546C7.7772 7.68408 7.56148 7.95171 7.51995 7.99786C7.23041 8.30125 6.83934 8.47659 6.44252 8.49389C4.17921 8.49389 2.3358 10.335 2.3335 12.5983V19.1079C2.3335 22.0379 4.71677 24.4212 7.64684 24.4212H18.938C21.8681 24.4212 24.2514 22.0379 24.2514 19.1079C24.2514 18.3808 24.2502 17.6533 24.249 16.9259L24.2475 15.9313C24.2468 15.3101 23.7518 14.8086 23.1389 14.7068C19.0767 14.0319 15.9491 10.509 15.7342 6.41759ZM13.2936 20.4818C10.8492 20.4818 8.8604 18.493 8.8604 16.0486C8.8604 13.6042 10.8492 11.6155 13.2936 11.6155C15.738 11.6155 17.7268 13.6042 17.7268 16.0486C17.7268 18.493 15.738 20.4818 13.2936 20.4818Z" fill="#5B616D"/>
</g>
<defs>
<filter id="filter0_d_781_674" x="-0.5" y="0" width="29" height="29.5" filterUnits="userSpaceOnUse" color-interpolation-filters="sRGB">
<feFlood flood-opacity="0" result="BackgroundImageFix"/>
<feColorMatrix in="SourceAlpha" type="matrix" values="0 0 0 0 0 0 0 0 0 0 0 0 0 0 0 0 0 0 127 0" result="hardAlpha"/>
<feMorphology radius="0.5" operator="erode" in="SourceAlpha" result="effect1_dropShadow_781_674"/>
<feOffset dy="1"/>
<feGaussianBlur stdDeviation="0.5"/>
<feComposite in2="hardAlpha" operator="out"/>
<feColorMatrix type="matrix" values="0 0 0 0 0 0 0 0 0 0 0 0 0 0 0 0 0 0 0.03 0"/>
<feBlend mode="normal" in2="BackgroundImageFix" result="effect1_dropShadow_781_674"/>
<feBlend mode="normal" in="SourceGraphic" in2="effect1_dropShadow_781_674" result="shape"/>
</filter>
</defs>
</svg>
