<svg width="40" height="40" viewBox="0 0 40 40" fill="none" xmlns="http://www.w3.org/2000/svg">
<path d="M23.3335 14.9998C23.3335 13.6191 24.4528 12.4998 25.8335 12.4998C27.2142 12.4998 28.3335 13.6191 28.3335 14.9998C28.3335 16.3805 27.2142 17.4998 25.8335 17.4998C24.4528 17.4998 23.3335 16.3805 23.3335 14.9998Z" fill="#749944"/>
<path fill-rule="evenodd" clip-rule="evenodd" d="M12.1127 7.76405C17.3611 7.30782 22.6392 7.30782 27.8877 7.76405L30.4047 7.98285C32.8132 8.19222 34.7643 10.025 35.1238 12.4156C35.8798 17.4435 35.8798 22.5561 35.1238 27.584C34.7643 29.9746 32.8132 31.8074 30.4047 32.0167L27.8877 32.2355C22.6393 32.6918 17.3611 32.6918 12.1127 32.2355L9.59568 32.0167C7.18724 31.8074 5.23612 29.9746 4.87662 27.584C4.12055 22.5561 4.12055 17.4435 4.87662 12.4156C5.23612 10.025 7.18723 8.19222 9.59568 7.98285L12.1127 7.76405ZM27.6712 10.2547C22.5668 9.81095 17.4336 9.81095 12.3292 10.2547L9.81219 10.4735C8.55497 10.5827 7.53648 11.5394 7.34883 12.7874C6.9196 15.6417 6.74661 18.5248 6.82985 21.4024L13.283 14.9492C13.5264 14.7058 13.8594 14.5736 14.2036 14.5837C14.5477 14.5938 14.8724 14.7454 15.1011 15.0027L21.2202 21.8866L25.4382 20.4806C25.9099 20.3234 26.43 20.4607 26.7626 20.8303L32.6278 27.3472C32.6368 27.3026 32.6447 27.2576 32.6516 27.2122C33.3706 22.4308 33.3706 17.5688 32.6516 12.7874C32.4639 11.5394 31.4454 10.5827 30.1882 10.4735L27.6712 10.2547ZM31.0338 29.3131L25.4521 23.1112L21.2288 24.519C20.7544 24.6771 20.2315 24.5373 19.8992 24.1636L14.1133 17.6544L7.04051 24.7272C7.12181 25.5574 7.22459 26.386 7.34883 27.2122C7.53648 28.4601 8.55497 29.4168 9.81219 29.5261L12.3292 29.7449C17.4336 30.1886 22.5668 30.1886 27.6712 29.7449L30.1882 29.5261C30.4861 29.5002 30.7706 29.4268 31.0338 29.3131Z" fill="#749944"/>
</svg>
