<svg width="32" height="32" viewBox="0 0 32 32" fill="none" xmlns="http://www.w3.org/2000/svg">
<path fill-rule="evenodd" clip-rule="evenodd" d="M2.16372 16.4552L5.19476 7.8736C5.20983 7.83093 5.22778 7.78932 5.24849 7.74908C5.75473 6.76532 6.66374 6.01132 7.63343 5.50958C8.61056 5.004 9.74509 4.70361 10.8147 4.70361C12.3457 4.70361 13.8678 5.31806 15.0107 6.29267C15.3771 6.60514 15.7128 6.96226 15.9998 7.35696C16.2869 6.96226 16.6226 6.60514 16.989 6.29267C18.1319 5.31806 19.654 4.70361 21.185 4.70361C22.2546 4.70361 23.3891 5.004 24.3662 5.50958C25.3359 6.01132 26.2449 6.76532 26.7512 7.74908C26.7719 7.78932 26.7898 7.83093 26.8049 7.8736L29.8359 16.4551C30.1567 17.253 30.3332 18.1243 30.3332 19.0369C30.3332 22.862 27.2323 25.9629 23.4072 25.9629C19.9218 25.9629 17.0376 23.3882 16.553 20.0369H15.4467C14.962 23.3882 12.0779 25.9629 8.59243 25.9629C4.76843 25.9629 1.66827 22.8638 1.66651 19.0402M5.57552 12.8009L7.05561 8.6104C7.32402 8.12622 7.84771 7.65058 8.55252 7.28589C9.27599 6.91156 10.0975 6.70361 10.8147 6.70361C11.8291 6.70361 12.8996 7.12094 13.713 7.81448C14.5245 8.50654 14.9998 9.39937 14.9998 10.3127V16.4028C13.9633 13.8841 11.4849 12.111 8.59243 12.111C7.511 12.111 6.48746 12.3589 5.57552 12.8009ZM13.4183 18.0442C13.4839 18.3649 13.5184 18.6969 13.5184 19.0369C13.5183 21.7575 11.3129 23.9629 8.59243 23.9629C5.87192 23.9629 3.6665 21.7574 3.6665 19.0369C3.6665 17.0044 4.89752 15.2594 6.65466 14.5068C6.69118 14.4911 6.72793 14.4759 6.76489 14.4611C7.33014 14.2352 7.9469 14.111 8.59243 14.111C10.2927 14.111 11.7917 14.9724 12.677 16.2826C13.0311 16.8068 13.287 17.4028 13.4183 18.0442ZM16.9998 16.4028C17.259 15.7731 17.6082 15.1901 18.0315 14.6697C19.3014 13.1084 21.2379 12.111 23.4072 12.111C23.4374 12.111 23.4675 12.1112 23.4976 12.1116C24.1415 12.1198 24.7642 12.2159 25.3542 12.3884C25.7246 12.4967 26.0822 12.6351 26.4242 12.8009L24.9441 8.6104C24.6757 8.12622 24.152 7.65058 23.4472 7.28589C22.7237 6.91156 21.9022 6.70361 21.185 6.70361C20.1705 6.70361 19.1 7.12094 18.2867 7.81448C17.4752 8.50654 16.9998 9.39937 16.9998 10.3127V16.4028ZM18.4813 19.0369C18.4813 19.0369 18.4813 19.0369 18.4813 19.0369C18.4813 21.7574 20.6867 23.9629 23.4072 23.9629C26.1268 23.9629 28.3316 21.759 28.3332 19.0399C28.3332 19.0389 28.3332 19.0379 28.3332 19.0369C28.3332 18.996 28.3327 18.9552 28.3317 18.9145C28.3305 18.8654 28.3286 18.8164 28.326 18.7677C28.2214 16.8266 26.9931 15.1842 25.2801 14.4795C24.7026 14.242 24.0701 14.111 23.4072 14.111C21.7069 14.111 20.2078 14.9725 19.3226 16.2828C18.7915 17.069 18.4813 18.0167 18.4813 19.0369Z" fill="#89878F"/>
<path d="M2.16372 16.4552C1.843 17.253 1.6665 18.1244 1.6665 19.0369C1.6665 19.0369 1.6665 19.0369 1.6665 19.0369" fill="#89878F"/>
</svg>
