<svg width="40" height="40" viewBox="0 0 40 40" fill="none" xmlns="http://www.w3.org/2000/svg">
<path fill-rule="evenodd" clip-rule="evenodd" d="M20.0003 7.9165C13.3269 7.9165 7.91699 13.3264 7.91699 19.9998C7.91699 26.6733 13.3269 32.0832 20.0003 32.0832C26.6738 32.0832 32.0837 26.6733 32.0837 19.9998C32.0837 13.3264 26.6738 7.9165 20.0003 7.9165ZM5.41699 19.9998C5.41699 11.9457 11.9462 5.4165 20.0003 5.4165C28.0545 5.4165 34.5837 11.9457 34.5837 19.9998C34.5837 28.054 28.0545 34.5832 20.0003 34.5832C11.9462 34.5832 5.41699 28.054 5.41699 19.9998Z" fill="#9F74FF"/>
<path fill-rule="evenodd" clip-rule="evenodd" d="M18.0833 15.5144C16.5274 16.7945 15.4879 18.5949 15.1573 20.5824L14.4274 24.9705C14.0484 27.2492 16.6979 28.7789 18.4818 27.3113L21.917 24.4852C23.473 23.2051 24.5124 21.4047 24.843 19.4172L25.5729 15.0291C25.952 12.7504 23.3024 11.2207 21.5185 12.6883L18.0833 15.5144ZM20.0003 17.4998C18.6196 17.4998 17.5003 18.6191 17.5003 19.9998C17.5003 21.3805 18.6196 22.4998 20.0003 22.4998C21.381 22.4998 22.5003 21.3805 22.5003 19.9998C22.5003 18.6191 21.381 17.4998 20.0003 17.4998Z" fill="#9F74FF"/>
</svg>
