<svg width="32" height="32" viewBox="0 0 32 32" fill="none" xmlns="http://www.w3.org/2000/svg">
<path d="M0 8C0 3.58172 3.58172 0 8 0H24C28.4183 0 32 3.58172 32 8V24C32 28.4183 28.4183 32 24 32H8C3.58172 32 0 28.4183 0 24V8Z" fill="#E7DCFF"/>
<path fill-rule="evenodd" clip-rule="evenodd" d="M16.0003 7.07897L13.7875 9.36847C13.5519 9.61216 13.2276 9.74977 12.8886 9.74977H9.75026V12.8882C9.75026 13.2271 9.61265 13.5514 9.36896 13.787L7.07946 15.9998L9.36896 18.2126C9.61265 18.4481 9.75026 18.7725 9.75026 19.1114V22.2498H12.8886C13.2276 22.2498 13.5519 22.3874 13.7875 22.6311L16.0003 24.9206L18.2131 22.6311C18.4486 22.3874 18.773 22.2498 19.1119 22.2498H22.2503V19.1114C22.2503 18.7725 22.3879 18.4481 22.6316 18.2126L24.9211 15.9998L22.6316 13.787C22.3879 13.5515 22.2503 13.2271 22.2503 12.8882V9.74977H19.1119C18.773 9.74977 18.4486 9.61216 18.2131 9.36847L16.0003 7.07897ZM15.1014 5.85054C15.5928 5.34214 16.4077 5.34214 16.8991 5.85054L19.2179 8.24977H22.5003C23.1906 8.24977 23.7503 8.80942 23.7503 9.49977V12.7821L26.1495 15.101C26.6579 15.5923 26.6579 16.4072 26.1495 16.8986L23.7503 19.2174V22.4998C23.7503 23.1901 23.1906 23.7498 22.5003 23.7498H19.2179L16.8991 26.149C16.4077 26.6574 15.5928 26.6574 15.1014 26.149L12.7826 23.7498H9.50026C8.8099 23.7498 8.25026 23.1901 8.25026 22.4998V19.2174L5.85103 16.8986C5.34263 16.4072 5.34263 15.5923 5.85103 15.101L8.25026 12.7821V9.49977C8.25026 8.80942 8.80991 8.24977 9.50026 8.24977H12.7826L15.1014 5.85054Z" fill="#5F5F5F"/>
<path fill-rule="evenodd" clip-rule="evenodd" d="M11.2503 15.9998C11.2503 13.3764 13.3769 11.2498 16.0003 11.2498C18.6236 11.2498 20.7503 13.3764 20.7503 15.9998C20.7503 18.6231 18.6236 20.7498 16.0003 20.7498C13.3769 20.7498 11.2503 18.6231 11.2503 15.9998ZM16.0003 12.7498C14.2053 12.7498 12.7503 14.2048 12.7503 15.9998C12.7503 17.7947 14.2053 19.2498 16.0003 19.2498C17.7952 19.2498 19.2503 17.7947 19.2503 15.9998C19.2503 14.2048 17.7952 12.7498 16.0003 12.7498Z" fill="#5F5F5F"/>
</svg>
